<?xml version="1.0" encoding="UTF-8" standalone="no"?>
<!DOCTYPE svg PUBLIC "-//W3C//DTD SVG 1.1//EN"
 "http://www.w3.org/Graphics/SVG/1.1/DTD/svg11.dtd">
<!-- Generated by graphviz version 3.0.0 (20220226.1711)
 -->
<!-- Title: g Pages: 1 -->
<svg width="318pt" height="606pt"
 viewBox="0.00 0.00 318.00 606.22" xmlns="http://www.w3.org/2000/svg" xmlns:xlink="http://www.w3.org/1999/xlink">
<g id="graph0" class="graph" transform="scale(1 1) rotate(0) translate(4 602.22)">
<title>g</title>
<polygon fill="white" stroke="transparent" points="-4,4 -4,-602.22 314,-602.22 314,4 -4,4"/>
<g id="clust1" class="cluster">
<title>cluster_Hash_Check</title>
<g id="a_clust1"><a xlink:href="https://github.com/Open-Attestation/oa-verify/blob/master/src/verifiers/documentIntegrity/hash/openAttestationHash.ts#:~:text=const%20verify" xlink:title="openAttestationHash">
<polygon fill="none" stroke="black" points="44,-371.22 44,-590.22 266,-590.22 266,-371.22 44,-371.22"/>
<text text-anchor="middle" x="155" y="-575.02" font-family="Times,serif" font-size="14.00">openAttestationHash</text>
</a>
</g>
</g>
<g id="clust2" class="cluster">
<title>cluster_Token_Check</title>
<g id="a_clust2"><a xlink:href="https://github.com/Open-Attestation/oa-verify/blob/master/src/verifiers/documentStatus/tokenRegistry/ethereumTokenRegistryStatus.ts#:~:text=const%20verify" xlink:title="EthereumTokenRegistryStatus">
<polygon fill="none" stroke="black" points="8,-198.48 8,-363.22 302,-363.22 302,-198.48 8,-198.48"/>
<text text-anchor="middle" x="155" y="-348.02" font-family="Times,serif" font-size="14.00">EthereumTokenRegistryStatus</text>
</a>
</g>
</g>
<g id="clust3" class="cluster">
<title>cluster_DnsTxt_Check</title>
<g id="a_clust3"><a xlink:href="https://github.com/Open-Attestation/oa-verify/blob/master/src/verifiers/issuerIdentity/dnsTxt/openAttestationDnsTxt.ts#:~:text=const%20verify" xlink:title="DnsTxtIdentityProof">
<polygon fill="none" stroke="black" points="10,-8 10,-190.48 300,-190.48 300,-8 10,-8"/>
<text text-anchor="middle" x="155" y="-175.28" font-family="Times,serif" font-size="14.00">DnsTxtIdentityProof</text>
</a>
</g>
</g>
<!-- HashCheckStart -->
<g id="node1" class="node">
<title>HashCheckStart</title>
<ellipse fill="none" stroke="black" cx="155" cy="-541.22" rx="27.1" ry="18"/>
<text text-anchor="middle" x="155" y="-537.52" font-family="Times,serif" font-size="14.00">Start</text>
</g>
<!-- HashCheckSchema -->
<g id="node2" class="node">
<title>HashCheckSchema</title>
<ellipse fill="none" stroke="black" cx="155" cy="-469.22" rx="103.18" ry="18"/>
<text text-anchor="middle" x="155" y="-465.52" font-family="Times,serif" font-size="14.00">Check Document Schema</text>
</g>
<!-- HashCheckStart&#45;&gt;HashCheckSchema -->
<g id="edge1" class="edge">
<title>HashCheckStart&#45;&gt;HashCheckSchema</title>
<path fill="none" stroke="black" d="M155,-522.92C155,-515.2 155,-505.93 155,-497.33"/>
<polygon fill="black" stroke="black" points="158.5,-497.32 155,-487.32 151.5,-497.32 158.5,-497.32"/>
</g>
<!-- HashCheckSignature -->
<g id="node3" class="node">
<title>HashCheckSignature</title>
<ellipse fill="none" stroke="black" cx="155" cy="-397.22" rx="68.79" ry="18"/>
<text text-anchor="middle" x="155" y="-393.52" font-family="Times,serif" font-size="14.00">Verify Signature</text>
</g>
<!-- HashCheckSchema&#45;&gt;HashCheckSignature -->
<g id="edge2" class="edge">
<title>HashCheckSchema&#45;&gt;HashCheckSignature</title>
<path fill="none" stroke="black" d="M155,-450.92C155,-443.2 155,-433.93 155,-425.33"/>
<polygon fill="black" stroke="black" points="158.5,-425.32 155,-415.32 151.5,-425.32 158.5,-425.32"/>
</g>
<!-- TokenCheckConnect -->
<g id="node4" class="node">
<title>TokenCheckConnect</title>
<ellipse fill="none" stroke="black" cx="155" cy="-314.22" rx="105.08" ry="18"/>
<text text-anchor="middle" x="155" y="-310.52" font-family="Times,serif" font-size="14.00">Connect to Token Registry</text>
</g>
<!-- HashCheckSignature&#45;&gt;TokenCheckConnect -->
<g id="edge3" class="edge">
<title>HashCheckSignature&#45;&gt;TokenCheckConnect</title>
<path fill="none" stroke="black" d="M155,-379.04C155,-368.41 155,-354.53 155,-342.42"/>
<polygon fill="black" stroke="black" points="158.5,-342.37 155,-332.37 151.5,-342.37 158.5,-342.37"/>
</g>
<!-- TokenCheckMint -->
<g id="node5" class="node">
<title>TokenCheckMint</title>
<ellipse fill="none" stroke="black" cx="155" cy="-233.35" rx="139.1" ry="26.74"/>
<text text-anchor="middle" x="155" y="-237.15" font-family="Times,serif" font-size="14.00">Check if Document Merkle Root</text>
<text text-anchor="middle" x="155" y="-222.15" font-family="Times,serif" font-size="14.00"> minted on Token Registry</text>
</g>
<!-- TokenCheckConnect&#45;&gt;TokenCheckMint -->
<g id="edge4" class="edge">
<title>TokenCheckConnect&#45;&gt;TokenCheckMint</title>
<path fill="none" stroke="black" d="M155,-296.11C155,-288.62 155,-279.53 155,-270.65"/>
<polygon fill="black" stroke="black" points="158.5,-270.43 155,-260.43 151.5,-270.43 158.5,-270.43"/>
</g>
<!-- DNSTxtIssuer -->
<g id="node6" class="node">
<title>DNSTxtIssuer</title>
<ellipse fill="none" stroke="black" cx="155" cy="-132.61" rx="137.36" ry="26.74"/>
<text text-anchor="middle" x="155" y="-136.41" font-family="Times,serif" font-size="14.00">Ensure That Document issuer is </text>
<text text-anchor="middle" x="155" y="-121.41" font-family="Times,serif" font-size="14.00">DNSTxt</text>
</g>
<!-- TokenCheckMint&#45;&gt;DNSTxtIssuer -->
<g id="edge5" class="edge">
<title>TokenCheckMint&#45;&gt;DNSTxtIssuer</title>
<path fill="none" stroke="black" d="M155,-206.41C155,-195.27 155,-182.06 155,-169.98"/>
<polygon fill="black" stroke="black" points="158.5,-169.72 155,-159.72 151.5,-169.72 158.5,-169.72"/>
</g>
<!-- DNSTxtRevoked -->
<g id="node7" class="node">
<title>DNSTxtRevoked</title>
<ellipse fill="none" stroke="black" cx="155" cy="-42.87" rx="127.06" ry="26.74"/>
<text text-anchor="middle" x="155" y="-46.67" font-family="Times,serif" font-size="14.00">Check DNS TXT is the same </text>
<text text-anchor="middle" x="155" y="-31.67" font-family="Times,serif" font-size="14.00">as Smart Contract Address</text>
</g>
<!-- DNSTxtIssuer&#45;&gt;DNSTxtRevoked -->
<g id="edge6" class="edge">
<title>DNSTxtIssuer&#45;&gt;DNSTxtRevoked</title>
<path fill="none" stroke="black" d="M155,-105.29C155,-97.32 155,-88.43 155,-79.94"/>
<polygon fill="black" stroke="black" points="158.5,-79.87 155,-69.87 151.5,-79.87 158.5,-79.87"/>
</g>
</g>
</svg>
