<?xml version="1.0" encoding="UTF-8" standalone="no"?>
<!DOCTYPE svg PUBLIC "-//W3C//DTD SVG 1.1//EN"
 "http://www.w3.org/Graphics/SVG/1.1/DTD/svg11.dtd">
<!-- Generated by graphviz version 3.0.0 (20220226.1711)
 -->
<!-- Title: g Pages: 1 -->
<svg width="380pt" height="606pt"
 viewBox="0.00 0.00 380.00 606.22" xmlns="http://www.w3.org/2000/svg" xmlns:xlink="http://www.w3.org/1999/xlink">
<g id="page0,1_graph0" class="graph" transform="scale(1 1) rotate(0) translate(4 602.22)">
<title>g</title>
<polygon fill="white" stroke="transparent" points="-4,4 -4,-602.22 376,-602.22 376,4 -4,4"/>
<g id="clust1" class="cluster">
<title>cluster_Hash_Check</title>
<g id="a_clust1"><a xlink:href="https://github.com/Open-Attestation/oa-verify/blob/master/src/verifiers/documentStatus/tokenRegistry/ethereumTokenRegistryStatus.ts#:~:text=const%20verify" xlink:title="openAttestationHash">
<polygon fill="none" stroke="black" points="75,-371.22 75,-590.22 297,-590.22 297,-371.22 75,-371.22"/>
<text text-anchor="middle" x="186" y="-575.02" font-family="Times,serif" font-size="14.00">openAttestationHash</text>
</a>
</g>
</g>
<g id="clust3" class="cluster">
<title>cluster_DnsTxt_Check</title>
<g id="a_clust3"><a xlink:href="https://github.com/Open-Attestation/oa-verify/blob/master/src/verifiers/issuerIdentity/dnsTxt/openAttestationDnsTxt.ts#:~:text=const%20verify" xlink:title="DnsTxtIdentityProof">
<polygon fill="none" stroke="black" points="8,-8 8,-190.48 364,-190.48 364,-8 8,-8"/>
<text text-anchor="middle" x="186" y="-175.28" font-family="Times,serif" font-size="14.00">DnsTxtIdentityProof</text>
</a>
</g>
</g>
<g id="clust2" class="cluster">
<title>cluster_DocumentStore_Check</title>
<g id="a_clust2"><a xlink:href="https://github.com/Open-Attestation/oa-verify/blob/master/src/verifiers/documentStatus/documentStore/ethereumDocumentStoreStatus.ts#:~:text=const%20verify" xlink:title="EthereumDocumentStoreStatus">
<polygon fill="none" stroke="black" points="26,-198.48 26,-363.22 346,-363.22 346,-198.48 26,-198.48"/>
<text text-anchor="middle" x="186" y="-348.02" font-family="Times,serif" font-size="14.00">EthereumDocumentStoreStatus</text>
</a>
</g>
</g>
<!-- HashCheckStart -->
<g id="node1" class="node">
<title>HashCheckStart</title>
<ellipse fill="none" stroke="black" cx="186" cy="-541.22" rx="27.1" ry="18"/>
<text text-anchor="middle" x="186" y="-537.52" font-family="Times,serif" font-size="14.00">Start</text>
</g>
<!-- HashCheckSchema -->
<g id="node2" class="node">
<title>HashCheckSchema</title>
<ellipse fill="none" stroke="black" cx="186" cy="-469.22" rx="103.18" ry="18"/>
<text text-anchor="middle" x="186" y="-465.52" font-family="Times,serif" font-size="14.00">Check Document Schema</text>
</g>
<!-- HashCheckStart&#45;&gt;HashCheckSchema -->
<g id="edge1" class="edge">
<title>HashCheckStart&#45;&gt;HashCheckSchema</title>
<path fill="none" stroke="black" d="M186,-522.92C186,-515.2 186,-505.93 186,-497.33"/>
<polygon fill="black" stroke="black" points="189.5,-497.32 186,-487.32 182.5,-497.32 189.5,-497.32"/>
</g>
<!-- HashCheckSignature -->
<g id="node3" class="node">
<title>HashCheckSignature</title>
<ellipse fill="none" stroke="black" cx="186" cy="-397.22" rx="68.79" ry="18"/>
<text text-anchor="middle" x="186" y="-393.52" font-family="Times,serif" font-size="14.00">Verify Signature</text>
</g>
<!-- HashCheckSchema&#45;&gt;HashCheckSignature -->
<g id="edge2" class="edge">
<title>HashCheckSchema&#45;&gt;HashCheckSignature</title>
<path fill="none" stroke="black" d="M186,-450.92C186,-443.2 186,-433.93 186,-425.33"/>
<polygon fill="black" stroke="black" points="189.5,-425.32 186,-415.32 182.5,-425.32 189.5,-425.32"/>
</g>
<!-- DocumentStoreConnect -->
<g id="node4" class="node">
<title>DocumentStoreConnect</title>
<ellipse fill="none" stroke="black" cx="186" cy="-314.22" rx="113.18" ry="18"/>
<text text-anchor="middle" x="186" y="-310.52" font-family="Times,serif" font-size="14.00">Connect to Document Stores</text>
</g>
<!-- HashCheckSignature&#45;&gt;DocumentStoreConnect -->
<g id="edge3" class="edge">
<title>HashCheckSignature&#45;&gt;DocumentStoreConnect</title>
<path fill="none" stroke="black" d="M186,-379.04C186,-368.41 186,-354.53 186,-342.42"/>
<polygon fill="black" stroke="black" points="189.5,-342.37 186,-332.37 182.5,-342.37 189.5,-342.37"/>
</g>
<!-- DocumentStoreMint -->
<g id="node5" class="node">
<title>DocumentStoreMint</title>
<ellipse fill="none" stroke="black" cx="186" cy="-233.35" rx="152.06" ry="26.74"/>
<text text-anchor="middle" x="186" y="-237.15" font-family="Times,serif" font-size="14.00">Check if Document Merkle Root on</text>
<text text-anchor="middle" x="186" y="-222.15" font-family="Times,serif" font-size="14.00"> Document Store</text>
</g>
<!-- DocumentStoreConnect&#45;&gt;DocumentStoreMint -->
<g id="edge4" class="edge">
<title>DocumentStoreConnect&#45;&gt;DocumentStoreMint</title>
<path fill="none" stroke="black" d="M186,-296.11C186,-288.62 186,-279.53 186,-270.65"/>
<polygon fill="black" stroke="black" points="189.5,-270.43 186,-260.43 182.5,-270.43 189.5,-270.43"/>
</g>
<!-- DocumentStoreRevoked -->
<g id="node6" class="node">
<title>DocumentStoreRevoked</title>
<ellipse fill="none" stroke="black" cx="186" cy="-132.61" rx="169.91" ry="26.74"/>
<text text-anchor="middle" x="186" y="-136.41" font-family="Times,serif" font-size="14.00">Check if Document Merkle Root has not</text>
<text text-anchor="middle" x="186" y="-121.41" font-family="Times,serif" font-size="14.00"> been Revoked on Document Store</text>
</g>
<!-- DocumentStoreMint&#45;&gt;DocumentStoreRevoked -->
<g id="edge5" class="edge">
<title>DocumentStoreMint&#45;&gt;DocumentStoreRevoked</title>
<path fill="none" stroke="black" d="M186,-206.41C186,-195.27 186,-182.06 186,-169.98"/>
<polygon fill="black" stroke="black" points="189.5,-169.72 186,-159.72 182.5,-169.72 189.5,-169.72"/>
</g>
<!-- DNSTxtRevoked -->
<g id="node7" class="node">
<title>DNSTxtRevoked</title>
<ellipse fill="none" stroke="black" cx="186" cy="-42.87" rx="127.06" ry="26.74"/>
<text text-anchor="middle" x="186" y="-46.67" font-family="Times,serif" font-size="14.00">Check DNS TXT is the same </text>
<text text-anchor="middle" x="186" y="-31.67" font-family="Times,serif" font-size="14.00">as Smart Contract Address</text>
</g>
<!-- DocumentStoreRevoked&#45;&gt;DNSTxtRevoked -->
<g id="edge6" class="edge">
<title>DocumentStoreRevoked&#45;&gt;DNSTxtRevoked</title>
<path fill="none" stroke="black" d="M186,-105.29C186,-97.32 186,-88.43 186,-79.94"/>
<polygon fill="black" stroke="black" points="189.5,-79.87 186,-69.87 182.5,-79.87 189.5,-79.87"/>
</g>
</g>
</svg>
